HIERARCHY
ROOT hip
{
  OFFSET 0.146333 93.2371 0.453235
  CHANNELS 6 Xposition Yposition Zposition Zrotation Xrotation Yrotation
  JOINT abdomen
  {
    OFFSET 0 7.2397 0
    CHANNELS 6 Xposition Yposition Zposition Zrotation Xrotation Yrotation
    JOINT chest
    {
      OFFSET 0 16.546 0
      CHANNELS 6 Xposition Yposition Zposition Zrotation Xrotation Yrotation
      JOINT neck
      {
        OFFSET 0 34.2149 0
        CHANNELS 6 Xposition Yposition Zposition Zrotation Xrotation Yrotation
        JOINT head
        {
          OFFSET 0 6.2923 0
          CHANNELS 6 Xposition Yposition Zposition Zrotation Xrotation Yrotation
          End Site
          {
            OFFSET 0 21.2161 0
          }
        }
      }
      JOINT lCollar
      {
        OFFSET 4.0639 26.6115 -1.1234
        CHANNELS 6 Xposition Yposition Zposition Zrotation Xrotation Yrotation
        JOINT lShldr
        {
          OFFSET 14.1772 0 0
          CHANNELS 6 Xposition Yposition Zposition Zrotation Xrotation Yrotation
          JOINT lForeArm
          {
            OFFSET 26.1234 0 0
            CHANNELS 6 Xposition Yposition Zposition Zrotation Xrotation Yrotation
            JOINT lHand
            {
              OFFSET 27.7188 0 0
              CHANNELS 6 Xposition Yposition Zposition Zrotation Xrotation Yrotation
              JOINT lThumb1
              {
                OFFSET 2.2979 -0.4685 1.8313
                CHANNELS 6 Xposition Yposition Zposition Zrotation Xrotation Yrotation
                JOINT lThumb2
                {
                  OFFSET 5.2953 0 0
                  CHANNELS 6 Xposition Yposition Zposition Zrotation Xrotation Yrotation
                  JOINT lThumb3
                  {
                    OFFSET 3.0181 0 0
                    CHANNELS 6 Xposition Yposition Zposition Zrotation Xrotation Yrotation
                    End Site
                    {
                      OFFSET 2.6294 0 0
                    }
                  }
                }
              }
              JOINT lIndex1
              {
                OFFSET 9.3793 0.2991 2.5924
                CHANNELS 6 Xposition Yposition Zposition Zrotation Xrotation Yrotation
                JOINT lIndex2
                {
                  OFFSET 4.3461 0 0
                  CHANNELS 6 Xposition Yposition Zposition Zrotation Xrotation Yrotation
                  JOINT lIndex3
                  {
                    OFFSET 2.1666 0 0
                    CHANNELS 6 Xposition Yposition Zposition Zrotation Xrotation Yrotation
                    End Site
                    {
                      OFFSET 2.2048 0 0
                    }
                  }
                }
              }
              JOINT lMid1
              {
                OFFSET 9.4769 0.8376 0.2947
                CHANNELS 6 Xposition Yposition Zposition Zrotation Xrotation Yrotation
                JOINT lMid2
                {
                  OFFSET 4.772 0 0
                  CHANNELS 6 Xposition Yposition Zposition Zrotation Xrotation Yrotation
                  JOINT lMid3
                  {
                    OFFSET 2.8722 0 0
                    CHANNELS 6 Xposition Yposition Zposition Zrotation Xrotation Yrotation
                    End Site
                    {
                      OFFSET 2.0959 0 0
                    }
                  }
                }
              }
              JOINT lRing1
              {
                OFFSET 8.6586 1.0176 -1.7016
                CHANNELS 6 Xposition Yposition Zposition Zrotation Xrotation Yrotation
                JOINT lRing2
                {
                  OFFSET 4.5461 0 0
                  CHANNELS 6 Xposition Yposition Zposition Zrotation Xrotation Yrotation
                  JOINT lRing3
                  {
                    OFFSET 2.506 0 0
                    CHANNELS 6 Xposition Yposition Zposition Zrotation Xrotation Yrotation
                    End Site
                    {
                      OFFSET 2.2023 0 0
                    }
                  }
                }
              }
              JOINT lPinky1
              {
                OFFSET 7.6901 0.6618 -3.9096
                CHANNELS 6 Xposition Yposition Zposition Zrotation Xrotation Yrotation
                JOINT lPinky2
                {
                  OFFSET 3.2119 0 0
                  CHANNELS 6 Xposition Yposition Zposition Zrotation Xrotation Yrotation
                  JOINT lPinky3
                  {
                    OFFSET 1.924 0 0
                    CHANNELS 6 Xposition Yposition Zposition Zrotation Xrotation Yrotation
                    End Site
                    {
                      OFFSET 1.7829 0 0
                    }
                  }
                }
              }
            }
          }
        }
      }
      JOINT rCollar
      {
        OFFSET -4.0677 26.6109 -1.1234
        CHANNELS 6 Xposition Yposition Zposition Zrotation Xrotation Yrotation
        JOINT rShldr
        {
          OFFSET -14.1772 0 0
          CHANNELS 6 Xposition Yposition Zposition Zrotation Xrotation Yrotation
          JOINT rForeArm
          {
            OFFSET -26.1234 0 0
            CHANNELS 6 Xposition Yposition Zposition Zrotation Xrotation Yrotation
            JOINT rHand
            {
              OFFSET -27.7188 0 0
              CHANNELS 6 Xposition Yposition Zposition Zrotation Xrotation Yrotation
              JOINT rThumb1
              {
                OFFSET -2.2979 -0.4684 1.8313
                CHANNELS 6 Xposition Yposition Zposition Zrotation Xrotation Yrotation
                JOINT rThumb2
                {
                  OFFSET -5.2953 0 0
                  CHANNELS 6 Xposition Yposition Zposition Zrotation Xrotation Yrotation
                  JOINT rThumb3
                  {
                    OFFSET -3.0181 0 0
                    CHANNELS 6 Xposition Yposition Zposition Zrotation Xrotation Yrotation
                    End Site
                    {
                      OFFSET -2.6294 0 0
                    }
                  }
                }
              }
              JOINT rIndex1
              {
                OFFSET -9.3793 0.2991 2.5924
                CHANNELS 6 Xposition Yposition Zposition Zrotation Xrotation Yrotation
                JOINT rIndex2
                {
                  OFFSET -4.3461 0 0
                  CHANNELS 6 Xposition Yposition Zposition Zrotation Xrotation Yrotation
                  JOINT rIndex3
                  {
                    OFFSET -2.1666 0 0
                    CHANNELS 6 Xposition Yposition Zposition Zrotation Xrotation Yrotation
                    End Site
                    {
                      OFFSET -2.2048 0 0
                    }
                  }
                }
              }
              JOINT rMid1
              {
                OFFSET -9.4769 0.8376 0.2947
                CHANNELS 6 Xposition Yposition Zposition Zrotation Xrotation Yrotation
                JOINT rMid2
                {
                  OFFSET -4.772 0 0
                  CHANNELS 6 Xposition Yposition Zposition Zrotation Xrotation Yrotation
                  JOINT rMid3
                  {
                    OFFSET -2.8722 0 0
                    CHANNELS 6 Xposition Yposition Zposition Zrotation Xrotation Yrotation
                    End Site
                    {
                      OFFSET -2.0959 0 0
                    }
                  }
                }
              }
              JOINT rRing1
              {
                OFFSET -8.6586 1.0176 -1.7016
                CHANNELS 6 Xposition Yposition Zposition Zrotation Xrotation Yrotation
                JOINT rRing2
                {
                  OFFSET -4.5461 0 0
                  CHANNELS 6 Xposition Yposition Zposition Zrotation Xrotation Yrotation
                  JOINT rRing3
                  {
                    OFFSET -2.506 0 0
                    CHANNELS 6 Xposition Yposition Zposition Zrotation Xrotation Yrotation
                    End Site
                    {
                      OFFSET -2.2023 0 0
                    }
                  }
                }
              }
              JOINT rPinky1
              {
                OFFSET -7.6901 0.6618 -3.9096
                CHANNELS 6 Xposition Yposition Zposition Zrotation Xrotation Yrotation
                JOINT rPinky2
                {
                  OFFSET -3.2119 0 0
                  CHANNELS 6 Xposition Yposition Zposition Zrotation Xrotation Yrotation
                  JOINT rPinky3
                  {
                    OFFSET -1.924 0 0
                    CHANNELS 6 Xposition Yposition Zposition Zrotation Xrotation Yrotation
                    End Site
                    {
                      OFFSET -1.7829 0 0
                    }
                  }
                }
              }
            }
          }
        }
      }
    }
  }
  JOINT lThigh
  {
    OFFSET 8.7379 -0.0029 0.0005
    CHANNELS 6 Xposition Yposition Zposition Zrotation Xrotation Yrotation
    JOINT lShin
    {
      OFFSET 0 -46.6676 0
      CHANNELS 6 Xposition Yposition Zposition Zrotation Xrotation Yrotation
      JOINT lFoot
      {
        OFFSET 0 -40.1476 0
        CHANNELS 6 Xposition Yposition Zposition Zrotation Xrotation Yrotation
        JOINT lToes
        {
          OFFSET 0 -8.8846 14.2294
          CHANNELS 6 Xposition Yposition Zposition Zrotation Xrotation Yrotation
          End Site
          {
            OFFSET 0 0 6.296
          }
        }
      }
    }
  }
  JOINT rThigh
  {
    OFFSET -8.7379 0.0029 -0.0005
    CHANNELS 6 Xposition Yposition Zposition Zrotation Xrotation Yrotation
    JOINT rShin
    {
      OFFSET 0 -46.6676 0
      CHANNELS 6 Xposition Yposition Zposition Zrotation Xrotation Yrotation
      JOINT rFoot
      {
        OFFSET 0 -40.1476 0
        CHANNELS 6 Xposition Yposition Zposition Zrotation Xrotation Yrotation
        JOINT rToes
        {
          OFFSET 0 -8.8846 14.2294
          CHANNELS 6 Xposition Yposition Zposition Zrotation Xrotation Yrotation
          End Site
          {
            OFFSET 0 0 6.296
          }
        }
      }
    }
  }
}
MOTION
Frames:	4
Frame Time:	0.0333333
-0.592943 84.9169 -8.10511 -0.736132 6.95019 -160.312 0 7.2397 0 0.275049 8.59772 -5.68512 0 16.546 0 -0.263032 19.098 -11.1923 0 34.2149 0 -2.14508 24.4622 23.3484 0 6.2923 0 5.68696 -35.5221 -9.12083 4.0639 26.6115 -1.1234 -0.277789 -24.0548 -3.00001 14.1772 0 -3.55271e-15 -78.9999 24.8126 -53.5909 26.1234 0 -1.42109e-14 -7.46422e-06 -5.04341 -4.05397e-05 27.7188 -3.55271e-15 0 -140.383 -45.5528 -139.574 2.2979 -0.4685 1.8313 35.5714 71.9201 -68.97 5.2953 0 0 -4.32134 2.87494 2.06941 3.0181 0 -1.42109e-14 12.4883 -8.77736e-05 -8.02464e-06 9.3793 0.2991 2.5924 -27.91 2.18354 10.1275 4.3461 -1.42109e-14 -3.55271e-15 -82.2302 -0.498575 -10.1832 2.1666 0 0 -2.16839 1.87415e-06 7.57535e-06 9.4769 0.8376 0.2947 -57.1786 -3.51348 3.25027 4.772 0 0 -60.9089 -1.6814 -1.07212 2.8722 1.42109e-14 3.55271e-15 3.9574 0.0710999 0.399399 8.6586 1.0176 -1.7016 -69.9323 -4.92742 0.224377 4.5461 0 0 -56.1116 2.3213 0.44232 2.506 -1.42109e-14 0 6.76051 3.92509e-06 -9.33122e-05 7.6901 0.6618 -3.9096 -84.2358 -13.4194 -12.0202 3.2119 -7.10543e-15 -1.42109e-14 -56.4035 1.84558 9.0593 1.924 1.42109e-14 1.42109e-14 4.4131 8.50843e-06 1.62077e-06 -4.0677 26.6109 -1.1234 -1.65874 10.9881 -4.41574 -14.1772 1.42109e-14 0 48.5238 20.0301 27.9697 -26.1234 0 0 0.710889 -2.14965 117.855 -27.7188 0 -1.42109e-14 -1.15001 -16.2976 -31.9762 -2.2979 -0.4684 1.8313 -71.0879 83.4987 113.663 -5.2953 0 7.10543e-15 4.4188 22.9441 -13.4955 -3.0181 0 0 -12.4883 -9.94822e-05 0.000113704 -9.3793 0.2991 2.5924 -3.4378 0.934759 -0.82491 -4.3461 7.10543e-15 0 21.3571 -1.73032 -1.65644 -2.1666 0 0 2.1682 9.64979e-07 2.26884e-06 -9.4769 0.8376 0.2947 42.8793 2.03437 -2.89531 -4.772 -7.10543e-15 0 110.969 -9.22512 0.995031 -2.8722 -1.42109e-14 -1.42109e-14 -3.9575 0.0709998 -0.399407 -8.6586 1.0176 -1.7016 47.9407 -7.30442 1.40202 -4.5461 7.10543e-15 -1.42109e-14 96.8405 7.14607 1.64626 -2.506 0 1.42109e-14 -6.7605 8.22796e-06 -1.23665e-06 -7.6901 0.6618 -3.9096 67.5664 -12.8064 10.8891 -3.2119 7.10543e-15 -1.42109e-14 81.7152 2.21261 -7.45132 -1.924 0 -1.42109e-14 -4.41301 5.44323e-07 -2.62332e-06 8.7379 -0.0029 0.0005 23.284 -11.833 55.8004 0 -46.6676 7.10543e-15 23.2178 77.9391 -13.1752 1.33227e-15 -40.1476 1.77636e-15 9.03506 -34.7735 4.07795 0 -8.8846 14.2294 0.0001 -7.95139e-16 3.18055e-15 -8.7379 0.0029 -0.0005 8.25531 -30.6965 5.40393 -1.77636e-15 -46.6676 0 -9.43324 59.6762 9.83738 -1.77636e-15 -40.1476 -3.55271e-15 -1.42145 -19.766 6.30445 0 -8.8846 14.2294 -9.93923e-17 -1.98785e-16 -6.36111e-15 
-0.737888 85.7713 -8.20322 0.0521137 7.19862 -168.382 4.44089e-16 7.2397 0 -0.217224 8.79585 -5.16743 -8.88178e-16 16.546 -8.88178e-16 -1.518 19.5401 -10.0469 3.55271e-15 34.2149 3.55271e-15 -2.82843 23.6713 24.0446 3.55271e-15 6.2923 0 4.86138 -35.6817 -5.67203 4.0639 26.6115 -1.1234 -0.290057 -24.1073 -3.03719 14.1772 2.84217e-14 3.55271e-15 -78.8131 25.4842 -53.1405 26.1234 0 0 1.31413e-05 -5.9753 -5.16409e-05 27.7188 0 0 -137.791 -45.2254 -139.107 2.2979 -0.4685 1.8313 35.9402 72.0054 -69.2226 5.2953 0 2.13163e-14 -4.35881 2.88377 1.94639 3.0181 -7.10543e-15 1.42109e-14 12.4883 -8.77736e-05 -8.02464e-06 9.3793 0.2991 2.5924 -28.1883 2.19519 10.6098 4.3461 -1.42109e-14 -3.55271e-15 -82.2309 -0.498563 -10.1832 2.1666 0 -3.55271e-15 -2.16839 1.87415e-06 7.57535e-06 9.4769 0.8376 0.2947 -57.1864 -3.31016 3.98411 4.772 -7.10543e-15 -7.10543e-15 -60.8655 -1.67677 -1.0711 2.8722 0 7.10543e-15 3.9574 0.0710999 0.399399 8.6586 1.0176 -1.7016 -70.2508 -4.92778 0.228453 4.5461 0 7.10543e-15 -55.9564 2.31266 0.438866 2.506 1.42109e-14 0 6.76051 3.92509e-06 -9.33122e-05 7.6901 0.6618 -3.9096 -84.2379 -13.4113 -12.0029 3.2119 0 7.10543e-15 -56.4156 1.84493 9.06194 1.924 1.42109e-14 -1.42109e-14 4.4131 8.50843e-06 1.62077e-06 -4.0677 26.6109 -1.1234 -1.92488 10.9163 -4.29067 -14.1772 -1.42109e-14 1.42109e-14 47.0815 19.8283 26.2234 -26.1234 1.42109e-14 0 0.702182 -2.1668 117.547 -27.7188 0 1.42109e-14 0.0323763 -17.9129 -27.9075 -2.2979 -0.4684 1.8313 -69.9412 83.538 112.718 -5.2953 1.42109e-14 3.55271e-15 4.06647 22.9298 -13.4053 -3.0181 0 1.42109e-14 -12.4883 -9.94822e-05 0.000113704 -9.3793 0.2991 2.5924 -3.34938 0.924973 -0.814093 -4.3461 7.10543e-15 0 21.3671 -1.73163 -1.65644 -2.1666 7.10543e-15 0 2.1682 9.64979e-07 2.26884e-06 -9.4769 0.8376 0.2947 42.793 2.10587 -2.54695 -4.772 -3.55271e-15 1.42109e-14 110.928 -9.22305 0.991055 -2.8722 0 0 -3.9575 0.0709998 -0.399407 -8.6586 1.0176 -1.7016 48.232 -7.24731 1.61612 -4.5461 -7.10543e-15 0 96.8374 7.1458 1.64648 -2.506 0 1.42109e-14 -6.7605 8.22796e-06 -1.23665e-06 -7.6901 0.6618 -3.9096 67.639 -12.8235 10.8755 -3.2119 0 0 81.4062 2.21927 -7.40044 -1.924 0 -1.42109e-14 -4.41301 5.44323e-07 -2.62332e-06 8.7379 -0.0029 0.0005 23.017 -14.4794 59.126 3.55271e-15 -46.6676 0 18.1449 74.5263 -9.88477 -1.77636e-15 -40.1476 3.55271e-15 15.3896 -39.2009 6.60634 1.77636e-15 -8.8846 14.2294 0.0001 -1.59028e-15 -0 -8.7379 0.0029 -0.0005 9.45314 -29.3306 6.29226 -8.88178e-16 -46.6676 -7.10543e-15 -8.75711 57.215 10.9235 0 -40.1476 1.77636e-15 -3.09348 -18.2783 9.42091 0 -8.8846 14.2294 -3.97569e-16 0 -6.36111e-15 
-1.09947 86.5606 -8.35985 0.607492 7.3432 -175.931 0 7.2397 0 -0.805418 8.86065 -4.75909 4.44089e-16 16.546 0 -2.67333 19.7043 -9.12769 0 34.2149 7.10543e-15 -3.52095 23.2168 24.7386 3.55271e-15 6.2923 0 3.47277 -35.6501 -2.59276 4.0639 26.6115 -1.1234 0.105139 -24.1448 -1.98576 14.1772 -2.84217e-14 0 -78.0862 26.2652 -49.1805 26.1234 7.10543e-15 1.42109e-14 -1.41093 -5.8515 -7.44349 27.7188 0 0 -138.451 -47.1441 -144.401 2.2979 -0.4685 1.8313 36.1144 72.1153 -69.2862 5.2953 0 -1.42109e-14 -4.39356 2.89137 1.84095 3.0181 -7.10543e-15 1.42109e-14 12.4883 -8.77736e-05 -8.02464e-06 9.3793 0.2991 2.5924 -28.3259 2.21515 11.2036 4.3461 0 -1.06581e-14 -82.1494 -0.494474 -10.1733 2.1666 0 3.55271e-15 -2.16839 1.87415e-06 7.57535e-06 9.4769 0.8376 0.2947 -57.1001 -3.08092 4.79768 4.772 0 -3.55271e-15 -60.8645 -1.67667 -1.07107 2.8722 0 -7.10543e-15 3.9574 0.0710999 0.399399 8.6586 1.0176 -1.7016 -70.5022 -4.93049 0.216846 4.5461 0 7.10543e-15 -55.9472 2.31205 0.438684 2.506 0 7.10543e-15 6.76051 3.92509e-06 -9.33122e-05 7.6901 0.6618 -3.9096 -84.2383 -13.4093 -11.9989 3.2119 0 7.10543e-15 -56.4404 1.84366 9.06733 1.924 0 -1.42109e-14 4.4131 8.50843e-06 1.62077e-06 -4.0677 26.6109 -1.1234 -2.3787 10.8121 -4.09021 -14.1772 1.42109e-14 0 45.356 20.0915 25.3411 -26.1234 0 0 0.695919 -2.18814 116.976 -27.7188 0 0 1.47656 -20.5032 -23.7904 -2.2979 -0.4684 1.8313 -68.9138 83.4063 111.87 -5.2953 -1.42109e-14 0 3.69861 22.9144 -13.3112 -3.0181 0 0 -12.4883 -9.94822e-05 0.000113704 -9.3793 0.2991 2.5924 -3.20072 0.907493 -0.787513 -4.3461 0 0 21.3738 -1.73246 -1.65641 -2.1666 -1.42109e-14 0 2.1682 9.64979e-07 2.26884e-06 -9.4769 0.8376 0.2947 42.9001 2.17327 -2.18646 -4.772 0 1.42109e-14 110.89 -9.22113 0.98729 -2.8722 0 0 -3.9575 0.0709998 -0.399407 -8.6586 1.0176 -1.7016 48.5835 -7.19913 1.818 -4.5461 3.55271e-15 0 96.8418 7.14614 1.64621 -2.506 0 1.42109e-14 -6.7605 8.22796e-06 -1.23665e-06 -7.6901 0.6618 -3.9096 67.7028 -12.8846 10.7878 -3.2119 7.10543e-15 -2.84217e-14 81.1125 2.22539 -7.35193 -1.924 0 0 -4.41301 5.44323e-07 -2.62332e-06 8.7379 -0.0029 0.0005 22.1958 -16.7109 61.4869 -3.55271e-15 -46.6676 0 13.9135 69.6241 -8.68825 5.32907e-15 -40.1476 0 20.5466 -40.3257 7.76658 -1.77636e-15 -8.8846 14.2294 0.0001 0 -0 -8.7379 0.0029 -0.0005 9.13837 -27.623 6.355 -2.66454e-15 -46.6676 0 -7.89831 55.5038 7.61632 0 -40.1476 -3.55271e-15 -2.46748 -18.0984 10.5257 0 -8.8846 14.2294 2.98177e-16 -3.97569e-16 6.36111e-15 
-1.62337 87.2699 -8.53639 1.11291 7.40027 176.845 -4.44089e-16 7.2397 0 -1.35513 8.78408 -4.4523 -2.22045e-16 16.546 0 -3.66871 19.5752 -8.39883 -5.32907e-15 34.2149 0 -4.24992 22.9662 25.4681 1.77636e-15 6.2923 0 1.60302 -35.3583 0.358955 4.0639 26.6115 -1.1234 0.662673 -24.135 -0.26591 14.1772 0 3.55271e-15 -76.9775 26.3984 -40.94 26.1234 0 0 -4.42282 -3.74823 -23.7169 27.7188 0 0 -143.971 -51.7517 -156.856 2.2979 -0.4685 1.8313 36.0534 72.2589 -69.1206 5.2953 0 -7.10543e-15 -4.41074 2.89514 1.79065 3.0181 1.42109e-14 -1.42109e-14 12.4883 -8.77736e-05 -8.02464e-06 9.3793 0.2991 2.5924 -28.257 2.24456 11.8779 4.3461 0 -3.55271e-15 -81.9299 -0.483407 -10.1469 2.1666 1.42109e-14 0 -2.16839 1.87415e-06 7.57535e-06 9.4769 0.8376 0.2947 -56.9026 -2.83455 5.65524 4.772 -7.10543e-15 0 -60.846 -1.67468 -1.07063 2.8722 0 -3.55271e-15 3.9574 0.0710999 0.399399 8.6586 1.0176 -1.7016 -70.6539 -4.93891 0.170041 4.5461 7.10543e-15 7.10543e-15 -56.0155 2.31579 0.440185 2.506 1.42109e-14 0 6.76051 3.92509e-06 -9.33122e-05 7.6901 0.6618 -3.9096 -84.2366 -13.4163 -12.0136 3.2119 -7.10543e-15 -1.42109e-14 -56.4666 1.84233 9.07301 1.924 0 -1.42109e-14 4.4131 8.50843e-06 1.62077e-06 -4.0677 26.6109 -1.1234 -2.96161 10.691 -3.85166 -14.1772 1.42109e-14 -1.42109e-14 43.6733 20.7745 25.3686 -26.1234 0 -1.42109e-14 0.693393 -2.20923 116.287 -27.7188 0 0 3.03197 -23.5909 -20.1608 -2.2979 -0.4684 1.8313 -68.3469 83.0175 111.414 -5.2953 0 0 3.4149 22.902 -13.2386 -3.0181 1.42109e-14 0 -12.4883 -9.94822e-05 0.000113704 -9.3793 0.2991 2.5924 -2.98763 0.878863 -0.724239 -4.3461 -7.10543e-15 -1.42109e-14 21.3536 -1.72969 -1.65636 -2.1666 0 0 2.1682 9.64979e-07 2.26884e-06 -9.4769 0.8376 0.2947 43.2036 2.22984 -1.84963 -4.772 0 -1.42109e-14 110.867 -9.21998 0.985079 -2.8722 -1.42109e-14 1.42109e-14 -3.9575 0.0709998 -0.399407 -8.6586 1.0176 -1.7016 48.9497 -7.17474 1.95824 -4.5461 7.10543e-15 1.42109e-14 96.8515 7.14689 1.64563 -2.506 0 0 -6.7605 8.22796e-06 -1.23665e-06 -7.6901 0.6618 -3.9096 67.7055 -13.0067 10.5876 -3.2119 7.10543e-15 -1.42109e-14 80.912 2.22946 -7.31874 -1.924 -7.10543e-15 0 -4.41301 5.44323e-07 -2.62332e-06 8.7379 -0.0029 0.0005 21.336 -17.2476 62.2367 -3.55271e-15 -46.6676 0 11.0734 64.6085 -7.90201 -1.77636e-15 -40.1476 -1.77636e-15 21.1993 -39.5438 6.32443 1.77636e-15 -8.8846 14.2294 0.0001 -3.97569e-16 3.18055e-15 -8.7379 0.0029 -0.0005 8.30635 -26.5957 5.58744 4.44089e-16 -46.6676 -7.10543e-15 -7.14036 53.5792 5.0958 0 -40.1476 0 -1.6504 -17.4874 9.58408 0 -8.8846 14.2294 5.51738e-33 -1.98785e-16 1.59028e-15 
